<svg xmlns="http://www.w3.org/2000/svg" width="16" height="16" viewBox="0 0 16 16">
  <path d="M15.9.49A.49.49,0,0,0,15.51.1,8.57,8.57,0,0,0,8.3,2.31,26.32,26.32,0,0,0,6.46,4.38l-3.93,0a.48.48,0,0,0-.43.24l-2,3.58A.52.52,0,0,0,0,8.6a.49.49,0,0,0,.34.27l3.25.71,2.79,2.79.71,3.25A.49.49,0,0,0,7.4,16a.51.51,0,0,0,.44,0l3.58-2a.48.48,0,0,0,.24-.43l0-3.93A26.32,26.32,0,0,0,13.69,7.7,8.57,8.57,0,0,0,15.9.49ZM3.62,8.58,1.24,8.06,2.8,5.31l2.91,0A29.9,29.9,0,0,0,3.62,8.58Zm4.32,6.18-.52-2.38a29.9,29.9,0,0,0,3.23-2.09l0,2.91ZM7,11.52,4.48,9.05h0A29.94,29.94,0,0,1,9,3a7.54,7.54,0,0,1,6-2,7.54,7.54,0,0,1-2,6A29.4,29.4,0,0,1,7,11.52ZM10.09,4.4a1.07,1.07,0,1,0,1.51,0A1.06,1.06,0,0,0,10.09,4.4ZM1,12.32a7.82,7.82,0,0,0-.76,3.42A7.86,7.86,0,0,0,3.68,15,1.87,1.87,0,0,0,3.9,12.1,1.87,1.87,0,0,0,1,12.32Z"/>
</svg>
